<?xml version="1.0" encoding="UTF-8" standalone="no"?>
<!-- Created with Inkscape (http://www.inkscape.org/) -->

<svg
   xmlns:dc="http://purl.org/dc/elements/1.1/"
   xmlns:cc="http://creativecommons.org/ns#"
   xmlns:rdf="http://www.w3.org/1999/02/22-rdf-syntax-ns#"
   xmlns:svg="http://www.w3.org/2000/svg"
   xmlns="http://www.w3.org/2000/svg"
   xmlns:sodipodi="http://sodipodi.sourceforge.net/DTD/sodipodi-0.dtd"
   xmlns:inkscape="http://www.inkscape.org/namespaces/inkscape"
   width="200mm"
   height="200mm"
   viewBox="0 0 200 200"
   version="1.1"
   id="svg8"
   inkscape:version="0.92.3 (2405546, 2018-03-11)"
   sodipodi:docname="trefoil.svg">
  <defs
     id="defs2" />
  <sodipodi:namedview
     id="base"
     pagecolor="#ffffff"
     bordercolor="#666666"
     borderopacity="1.0"
     inkscape:pageopacity="0.0"
     inkscape:pageshadow="2"
     inkscape:zoom="1.4"
     inkscape:cx="393.46912"
     inkscape:cy="359.23324"
     inkscape:document-units="mm"
     inkscape:current-layer="layer4"
     showgrid="false"
     inkscape:window-width="1920"
     inkscape:window-height="1017"
     inkscape:window-x="1672"
     inkscape:window-y="-8"
     inkscape:window-maximized="1" />
  <metadata
     id="metadata5">
    <rdf:RDF>
      <cc:Work
         rdf:about="">
        <dc:format>image/svg+xml</dc:format>
        <dc:type
           rdf:resource="http://purl.org/dc/dcmitype/StillImage" />
        <dc:title></dc:title>
      </cc:Work>
    </rdf:RDF>
  </metadata>
  <g
     inkscape:groupmode="layer"
     id="layer4"
     inkscape:label="Layer 4">
    <circle
       style="opacity:1;fill:#ffe800;fill-opacity:1;stroke:none;stroke-width:0.51275486;stroke-miterlimit:4;stroke-dasharray:none;stroke-opacity:1"
       id="path5197"
       cx="100"
       cy="100"
       r="83.374786" />
  </g>
  <g
     inkscape:groupmode="layer"
     id="layer3"
     inkscape:label="Layer 3">
    <path
       id="path5175"
       style="opacity:1;fill:#000000;fill-opacity:1;stroke:none;stroke-width:0.61500001;stroke-miterlimit:4;stroke-dasharray:none;stroke-opacity:1"
       d="M 99.219544,100.78437 163.46757,63.690748 A 75,75 0 0 0 136.34588,36.479476 Z m 0,0 74.321896,-1.2e-4 A 75,75 0 0 0 163.46757,63.690748 Z m 0,0 -2.52e-4,75.37947 A 75,75 0 0 0 136.6826,165.67228 Z m 0,0 -37.785058,65.44553 a 75,75 0 0 0 17.710329,7.38192 75,75 0 0 0 20.074477,2.55202 z m 0,0 L 34.005662,63.133071 A 75,75 0 0 0 26.111755,81.755866 75,75 0 0 0 23.60252,100.78412 Z m 0,0 L 61.729595,35.849139 A 75,75 0 0 0 34.005662,63.133071 Z"
       inkscape:connector-curvature="0" />
  </g>
  <g
     inkscape:groupmode="layer"
     id="layer2"
     inkscape:label="Layer 2">
    <circle
       style="opacity:1;fill:#ffe800;fill-opacity:1;stroke:none;stroke-width:0.61500001;stroke-miterlimit:4;stroke-dasharray:none;stroke-opacity:1"
       id="path5084"
       cx="100"
       cy="100"
       r="20" />
  </g>
  <g
     inkscape:label="Layer 1"
     inkscape:groupmode="layer"
     id="layer1"
     transform="translate(0,-97)">
    <circle
       style="opacity:1;fill:#000000;fill-opacity:1;stroke:none;stroke-width:0.45879307;stroke-miterlimit:4;stroke-dasharray:none;stroke-opacity:1"
       id="path1366"
       cx="100"
       cy="197"
       r="14.770603" />
  </g>
</svg>
